HIERARCHY
ROOT joint_Root
{
	OFFSET 0.0 0.0 0.0
	CHANNELS 6 Xposition Yposition Zposition Zrotation Xrotation Yrotation 
	JOINT Hips
	{
		OFFSET -0.726466 93.3139 -2.00062
		CHANNELS 6 Xposition Yposition Zposition Zrotation Xrotation Yrotation 
		JOINT Spine
		{
			OFFSET 15.7357 0.0 0.0
			CHANNELS 6 Xposition Yposition Zposition Zrotation Xrotation Yrotation 
			JOINT Chest
			{
				OFFSET 8.98455 -0.406207 0.0
				CHANNELS 6 Xposition Yposition Zposition Zrotation Xrotation Yrotation 
				JOINT Neck
				{
					OFFSET 16.3773 0.0 0.0
					CHANNELS 6 Xposition Yposition Zposition Zrotation Xrotation Yrotation 
					JOINT Head
					{
						OFFSET 6.45672 0.0 0.0
						CHANNELS 6 Xposition Yposition Zposition Zrotation Xrotation Yrotation 
						End Site
						{
							OFFSET 0.0 0.0 0.0
						}
					}
				}
				JOINT Shoulder_L
				{
					OFFSET 12.9942 -0.242716 4.98039
					CHANNELS 6 Xposition Yposition Zposition Zrotation Xrotation Yrotation 
					JOINT UpperArm_L
					{
						OFFSET 5.34809 0.0 0.0
						CHANNELS 6 Xposition Yposition Zposition Zrotation Xrotation Yrotation 
						JOINT LowerArm_L
						{
							OFFSET 24.3286 1.87007e-05 0.0
							CHANNELS 6 Xposition Yposition Zposition Zrotation Xrotation Yrotation 
							JOINT Hand_L
							{
								OFFSET 22.2916 0.0 0.0
								CHANNELS 6 Xposition Yposition Zposition Zrotation Xrotation Yrotation 
								End Site
								{
									OFFSET 0.0 0.0 0.0
								}
							}
						}
					}
				}
				JOINT Shoulder_R
				{
					OFFSET 12.9945 -0.242716 -4.98039
					CHANNELS 6 Xposition Yposition Zposition Zrotation Xrotation Yrotation 
					JOINT UpperArm_R
					{
						OFFSET -5.34813 0.0 0.0
						CHANNELS 6 Xposition Yposition Zposition Zrotation Xrotation Yrotation 
						JOINT LowerArm_R
						{
							OFFSET -24.3289 0.000322201 0.0
							CHANNELS 6 Xposition Yposition Zposition Zrotation Xrotation Yrotation 
							JOINT Hand_R
							{
								OFFSET -22.2915 -0.000108084 0.0
								CHANNELS 6 Xposition Yposition Zposition Zrotation Xrotation Yrotation 
								End Site
								{
									OFFSET 0.0 0.0 0.0
								}
							}
						}
					}
				}
			}
		}
		JOINT UpperLeg_L
		{
			OFFSET -2.19248 -6.46944 0.0
			CHANNELS 6 Xposition Yposition Zposition Zrotation Xrotation Yrotation 
			JOINT LowerLeg_L
			{
				OFFSET 39.0811 0.0 -1.23785e-05
				CHANNELS 6 Xposition Yposition Zposition Zrotation Xrotation Yrotation 
				JOINT Foot_L
				{
					OFFSET 40.9854 0.0 -1.26872e-05
					CHANNELS 6 Xposition Yposition Zposition Zrotation Xrotation Yrotation 
					JOINT Toes_L
					{
						OFFSET 11.7543 0.0 0.0
						CHANNELS 6 Xposition Yposition Zposition Zrotation Xrotation Yrotation 
						End Site
						{
							OFFSET 0.0 0.0 0.0
						}
					}
				}
			}
		}
		JOINT UpperLeg_R
		{
			OFFSET -2.19251 6.46944 0.0
			CHANNELS 6 Xposition Yposition Zposition Zrotation Xrotation Yrotation 
			JOINT LowerLeg_R
			{
				OFFSET -39.0811 -0.00228153 -0.0401928
				CHANNELS 6 Xposition Yposition Zposition Zrotation Xrotation Yrotation 
				JOINT Foot_R
				{
					OFFSET -40.9854 0.0 0.0
					CHANNELS 6 Xposition Yposition Zposition Zrotation Xrotation Yrotation 
					JOINT Toes_R
					{
						OFFSET -11.7543 0.0 0.0
						CHANNELS 6 Xposition Yposition Zposition Zrotation Xrotation Yrotation 
						End Site
						{
							OFFSET 0.0 0.0 0.0
						}
					}
				}
			}
		}
	}
}
MOTION
Frames:	6
Frame Time:	0.0333333
0.000000 0.000000 0.000000 0.000000 0.000000 -0.000000 -5.199760 81.854200 428.267000 -84.686900 4.516330 168.010000 15.735700 0.000005 -0.000001 83.961700 82.479600 -80.725900 8.984550 -0.406207 -0.000000 7.246700 -1.590900 6.565890 16.377300 -0.000001 -0.000001 0.447648 1.141190 -0.402360 6.456720 -0.000001 -0.000000 0.903968 5.730130 -6.753810 12.994200 -0.242716 4.980390 -88.611600 -3.843280 -70.117900 5.348090 -0.000007 -0.000001 -77.883500 32.714300 0.892001 24.328600 0.000019 0.000005 2.091990 1.036930 -63.817300 22.291600 -0.000001 0.000005 4.870240 5.646100 -14.634700 12.994500 -0.242716 -4.980390 87.188900 7.085260 -68.288400 -5.348130 -0.000001 -0.000004 -50.455600 32.179900 -5.994870 -24.328900 0.000322 -0.000009 -8.863910 -1.461920 -80.709100 -22.291500 -0.000108 -0.000004 16.281600 5.673290 -17.933700 -2.192480 -6.469440 -0.000000 -177.473000 -21.501000 -13.692300 39.081100 -0.000007 -0.000012 -0.101461 -0.012790 97.190200 40.985400 -0.000006 -0.000013 8.924130 -9.767850 -23.224200 11.754300 -0.000000 0.000003 -0.008996 -0.095990 -20.486700 -2.192510 6.469440 -0.000001 -164.854000 7.693600 149.754000 -39.081100 -0.002282 -0.040193 0.147149 -0.095413 56.458900 -40.985400 0.000008 0.000006 4.981050 -13.418200 -89.108800 -11.754300 -0.000006 -0.000006 -0.005860 -0.069559 -19.403900
0.000000 0.000000 0.000000 0.000000 0.000000 -0.000000 -5.113340 79.543400 422.641000 -83.887200 7.888180 169.303000 15.735700 0.000005 -0.000001 91.977300 81.993600 -88.870700 8.984550 -0.406207 -0.000000 8.229790 0.562778 6.166790 16.377300 -0.000001 -0.000001 -0.229639 2.076160 -0.265890 6.456720 -0.000001 -0.000000 0.605315 5.514650 -7.755540 12.994200 -0.242716 4.980390 -88.635500 -3.626290 -69.362600 5.348090 -0.000007 -0.000001 -78.240600 33.529800 6.798160 24.328600 0.000019 0.000005 5.745910 5.970450 -44.144900 22.291600 -0.000001 0.000005 1.659980 5.641990 -14.277100 12.994500 -0.242716 -4.980390 87.243300 8.127560 -71.193000 -5.348130 -0.000001 -0.000004 -44.618600 29.564600 -24.413100 -24.328900 0.000322 -0.000009 -7.437000 -0.706276 -84.605600 -22.291500 -0.000108 -0.000004 18.191400 5.672990 -17.888500 -2.192480 -6.469440 -0.000000 -179.936000 -20.293700 -28.834200 39.081100 -0.000007 -0.000012 -0.684282 -0.341549 116.525000 40.985400 -0.000006 -0.000013 14.022300 -7.050930 -24.750600 11.754300 -0.000000 0.000003 -0.011454 -0.114209 -21.232000 -2.192510 6.469440 -0.000001 -166.251000 9.105350 154.890000 -39.081100 -0.002282 -0.040193 0.188131 -0.107532 59.823100 -40.985400 0.000008 0.000006 4.325800 -9.676860 -95.526300 -11.754300 -0.000006 -0.000006 -0.006312 -0.073643 -19.570500
0.000000 0.000000 0.000000 0.000000 0.000000 -0.000000 -5.431420 78.674200 416.375000 -86.226900 10.306400 169.090000 15.735700 0.000005 -0.000001 100.465000 82.150100 -98.485300 8.984550 -0.406207 -0.000000 7.633650 2.837940 3.765760 16.377300 -0.000001 -0.000001 -0.676884 1.629970 0.257903 6.456720 -0.000001 -0.000000 1.092810 4.355760 -7.816890 12.994200 -0.242716 4.980390 -88.503200 -3.979300 -69.366500 5.348090 -0.000007 -0.000001 -76.951800 32.850800 14.401900 24.328600 0.000019 0.000005 16.008800 19.824500 -40.227100 22.291600 -0.000001 0.000005 -6.781320 5.639720 -14.179100 12.994500 -0.242716 -4.980390 88.121900 6.294140 -73.350500 -5.348130 -0.000001 -0.000004 -43.972000 25.052600 -38.484800 -24.328900 0.000322 -0.000009 -7.155550 0.247965 -91.975300 -22.291500 -0.000108 -0.000004 18.246500 5.671700 -17.652600 -2.192480 -6.469440 -0.000000 175.801000 -15.169900 -44.555100 39.081100 -0.000007 -0.000012 -1.054030 -0.783972 126.638000 40.985400 -0.000006 -0.000013 15.358800 -2.727360 -31.368800 11.754300 -0.000000 0.000003 -0.011266 -0.112874 -21.177300 -2.192510 6.469440 -0.000001 -171.715000 11.330900 160.228000 -39.081100 -0.002282 -0.040193 0.139923 -0.082884 58.773600 -40.985400 0.000008 0.000006 3.514330 -4.865400 -99.193900 -11.754300 -0.000006 -0.000006 -0.007977 -0.087847 -20.150300
0.000000 0.000000 0.000000 0.000000 0.000000 -0.000000 -6.218590 79.718100 408.534000 -89.022600 13.943800 169.234000 15.735700 0.000005 -0.000001 112.746000 81.893900 -112.382000 8.984550 -0.406207 -0.000000 7.198120 6.244000 0.333028 16.377300 -0.000001 -0.000001 -0.912873 1.676600 1.155940 6.456720 -0.000001 -0.000000 0.781644 2.252110 -7.216260 12.994200 -0.242716 4.980390 -88.098100 -4.643900 -67.700800 5.348090 -0.000007 -0.000001 -74.660000 35.777900 22.347000 24.328600 0.000019 0.000005 14.671500 15.850200 -43.801000 22.291600 -0.000001 0.000005 -6.356170 5.648470 -14.890900 12.994500 -0.242716 -4.980390 88.735300 4.633920 -74.717900 -5.348130 -0.000001 -0.000004 -43.237500 20.766800 -48.252500 -24.328900 0.000322 -0.000009 -5.643340 1.059950 -100.611000 -22.291500 -0.000108 -0.000004 17.487500 5.667640 -17.027500 -2.192480 -6.469440 -0.000000 172.851000 -11.692600 -53.112300 39.081100 -0.000007 -0.000012 -0.752849 -0.526213 124.951000 40.985400 -0.000006 -0.000013 16.490900 -5.619240 -40.264600 11.754300 -0.000000 0.000003 -0.011618 -0.115363 -21.279200 -2.192510 6.469440 -0.000001 -179.196000 11.333700 168.721000 -39.081100 -0.002282 -0.040193 0.048247 -0.035791 51.506000 -40.985400 0.000008 0.000006 2.609150 0.318051 -95.983300 -11.754300 -0.000006 -0.000006 -0.018518 -0.158938 -23.064000
0.000000 0.000000 0.000000 0.000000 0.000000 -0.000000 -7.051410 82.613400 399.725000 -92.872600 16.293900 168.999000 15.735700 0.000005 -0.000001 122.542000 81.755500 -124.086000 8.984550 -0.406207 -0.000000 6.314250 8.864350 -3.578770 16.377300 -0.000001 -0.000001 -0.801705 1.603570 1.529320 6.456720 -0.000001 -0.000000 0.621357 -0.146974 -6.062960 12.994200 -0.242716 4.980390 -87.087800 -6.842230 -66.877500 5.348090 -0.000007 -0.000001 -74.021200 33.471400 28.045000 24.328600 0.000019 0.000005 7.015180 6.716240 -46.467800 22.291600 -0.000001 0.000005 -6.128720 5.618380 -12.513600 12.994500 -0.242716 -4.980390 89.156000 3.187600 -75.162300 -5.348130 -0.000001 -0.000004 -42.844800 18.817800 -52.750700 -24.328900 0.000322 -0.000009 -6.018650 1.953310 -107.904000 -22.291500 -0.000108 -0.000004 16.389900 5.659260 -15.959200 -2.192480 -6.469440 -0.000000 169.970000 -8.248300 -57.285100 39.081100 -0.000007 -0.000012 -0.280555 -0.124022 113.851000 40.985400 -0.000006 -0.000013 15.838700 -11.371100 -47.686800 11.754300 -0.000000 0.000003 -0.008363 -0.090980 -20.281900 -2.192510 6.469440 -0.000001 173.534000 9.062060 176.705000 -39.081100 -0.002282 -0.040193 -0.010673 0.016216 40.702700 -40.985400 0.000008 0.000006 1.310660 1.997660 -82.037400 -11.754300 -0.000006 -0.000006 -0.080531 -0.393427 -32.909100
0.000000 0.000000 0.000000 0.000000 0.000000 -0.000000 -7.743460 86.326900 390.977000 -95.551100 16.305400 167.261000 15.735700 0.000005 -0.000001 128.877000 82.170700 -131.785000 8.984550 -0.406207 -0.000000 4.739480 9.887710 -6.229430 16.377300 -0.000001 -0.000001 -1.273330 1.157370 1.556210 6.456720 -0.000001 -0.000000 0.677784 -1.928310 -5.181950 12.994200 -0.242716 4.980390 -86.226600 -8.926790 -66.972000 5.348090 -0.000007 -0.000001 -73.940000 29.536400 31.707500 24.328600 0.000019 0.000005 8.621190 7.014920 -51.141500 22.291600 -0.000001 0.000005 -5.104500 5.621600 -12.722400 12.994500 -0.242716 -4.980390 89.486200 1.930330 -75.091200 -5.348130 -0.000001 -0.000004 -43.343800 19.898200 -53.811800 -24.328900 0.000322 -0.000009 -6.896360 2.864130 -112.446000 -22.291500 -0.000108 -0.000004 13.241500 5.641390 -14.200100 -2.192480 -6.469440 -0.000000 169.031000 -4.068930 -59.502800 39.081100 -0.000007 -0.000012 -0.005485 -0.000645 96.815200 40.985400 -0.000006 -0.000013 14.571400 -17.247300 -52.714100 11.754300 -0.000000 0.000003 -0.008312 -0.090567 -20.265100 -2.192510 6.469440 -0.000001 168.838000 9.804840 -178.890000 -39.081100 -0.002282 -0.040193 0.019024 -0.025843 31.320900 -40.985400 0.000008 0.000006 1.511820 2.431660 -60.479200 -11.754300 -0.000006 -0.000006 -0.247216 -0.718320 -47.755100
